<svg xmlns="http://www.w3.org/2000/svg" width="1200" height="700" viewBox="0 0 1200 700">
<rect x="0" y="0" width="100%" height="100%" fill="white" />
<line x1="90" y1="620" x2="1160" y2="620" stroke="#333" stroke-width="2" />
<line x1="90" y1="60" x2="90" y2="620" stroke="#333" stroke-width="2" />
<line x1="90.00" y1="620" x2="90.00" y2="626" stroke="#333" />
<text x="90.00" y="644" font-size="18" text-anchor="middle" fill="#333">5,057</text>
<line x1="268.33" y1="620" x2="268.33" y2="626" stroke="#333" />
<text x="268.33" y="644" font-size="18" text-anchor="middle" fill="#333">288,390</text>
<line x1="446.67" y1="620" x2="446.67" y2="626" stroke="#333" />
<text x="446.67" y="644" font-size="18" text-anchor="middle" fill="#333">571,723</text>
<line x1="625.00" y1="620" x2="625.00" y2="626" stroke="#333" />
<text x="625.00" y="644" font-size="18" text-anchor="middle" fill="#333">855,057</text>
<line x1="803.33" y1="620" x2="803.33" y2="626" stroke="#333" />
<text x="803.33" y="644" font-size="18" text-anchor="middle" fill="#333">1,138,390</text>
<line x1="981.67" y1="620" x2="981.67" y2="626" stroke="#333" />
<text x="981.67" y="644" font-size="18" text-anchor="middle" fill="#333">1,421,723</text>
<line x1="1160.00" y1="620" x2="1160.00" y2="626" stroke="#333" />
<text x="1160.00" y="644" font-size="18" text-anchor="middle" fill="#333">1,705,057</text>
<line x1="84" y1="620.00" x2="90" y2="620.00" stroke="#333" />
<text x="80" y="626.00" font-size="18" text-anchor="end" fill="#333">-440.358</text>
<line x1="84" y1="526.67" x2="90" y2="526.67" stroke="#333" />
<text x="80" y="532.67" font-size="18" text-anchor="end" fill="#333">-303.316</text>
<line x1="84" y1="433.33" x2="90" y2="433.33" stroke="#333" />
<text x="80" y="439.33" font-size="18" text-anchor="end" fill="#333">-166.275</text>
<line x1="84" y1="340.00" x2="90" y2="340.00" stroke="#333" />
<text x="80" y="346.00" font-size="18" text-anchor="end" fill="#333">-29.233</text>
<line x1="84" y1="246.67" x2="90" y2="246.67" stroke="#333" />
<text x="80" y="252.67" font-size="18" text-anchor="end" fill="#333">107.809</text>
<line x1="84" y1="153.33" x2="90" y2="153.33" stroke="#333" />
<text x="80" y="159.33" font-size="18" text-anchor="end" fill="#333">244.851</text>
<line x1="84" y1="60.00" x2="90" y2="60.00" stroke="#333" />
<text x="80" y="66.00" font-size="18" text-anchor="end" fill="#333">381.892</text>
<line x1="90" y1="526.67" x2="1160" y2="526.67" stroke="#ddd" stroke-dasharray="4,4" />
<line x1="90" y1="433.33" x2="1160" y2="433.33" stroke="#ddd" stroke-dasharray="4,4" />
<line x1="90" y1="340.00" x2="1160" y2="340.00" stroke="#ddd" stroke-dasharray="4,4" />
<line x1="90" y1="246.67" x2="1160" y2="246.67" stroke="#ddd" stroke-dasharray="4,4" />
<line x1="90" y1="153.33" x2="1160" y2="153.33" stroke="#ddd" stroke-dasharray="4,4" />
<path d="M 90.00,334.31 L 102.59,620.00 L 115.18,424.81 L 127.76,340.40 L 140.35,323.60 L 152.94,320.72 L 165.53,320.11 L 178.12,320.03 L 190.71,320.01 L 203.29,320.03 L 215.88,320.07 L 228.47,320.11 L 241.06,320.15 L 253.65,320.17 L 266.24,320.19 L 278.82,320.21 L 291.41,320.22 L 304.00,320.26 L 316.59,320.34 L 329.18,320.21 L 341.76,320.24 L 354.35,320.25 L 366.94,320.25 L 379.53,320.27 L 392.12,320.28 L 404.71,320.28 L 417.29,320.28 L 429.88,320.29 L 442.47,320.29 L 455.06,320.30 L 467.65,320.30 L 480.24,320.31 L 492.82,320.31 L 505.41,320.32 L 518.00,320.32 L 530.59,320.32 L 543.18,320.32 L 555.76,320.32 L 568.35,320.33 L 580.94,320.32 L 593.53,320.33 L 606.12,320.33 L 618.71,320.33 L 631.29,320.33 L 643.88,320.33 L 656.47,320.33 L 669.06,320.32 L 681.65,320.32 L 694.24,320.29 L 706.82,320.32 L 719.41,320.30 L 732.00,320.30 L 744.59,320.30 L 757.18,320.31 L 769.76,320.32 L 782.35,320.32 L 794.94,320.29 L 807.53,320.29 L 820.12,320.30 L 832.71,320.31 L 845.29,320.30 L 857.88,320.30 L 870.47,320.28 L 883.06,320.30 L 895.65,320.28 L 908.24,320.28 L 920.82,320.27 L 933.41,320.25 L 946.00,320.25 L 958.59,320.25 L 971.18,320.25 L 983.76,320.24 L 996.35,320.24 L 1008.94,320.23 L 1021.53,320.24 L 1034.12,320.24 L 1046.71,320.25 L 1059.29,320.25 L 1071.88,320.33 L 1084.47,320.58 L 1097.06,320.53 L 1109.65,320.33 L 1122.24,320.21 L 1134.82,320.16 L 1147.41,320.16 L 1160.00,320.15" fill="none" stroke="#1f77b4" stroke-width="3" stroke-linecap="round" stroke-linejoin="round" opacity="0.9" />
<path d="M 90.00,60.00 L 102.59,281.76 L 115.18,316.72 L 127.76,320.05 L 140.35,320.09 L 152.94,320.09 L 165.53,320.09 L 178.12,320.09 L 190.71,320.09 L 203.29,320.09 L 215.88,320.09 L 228.47,320.09 L 241.06,320.09 L 253.65,320.09 L 266.24,320.09 L 278.82,320.09 L 291.41,320.09 L 304.00,320.09 L 316.59,320.09 L 329.18,320.09 L 341.76,320.09 L 354.35,320.09 L 366.94,320.09 L 379.53,320.09 L 392.12,320.09 L 404.71,320.09 L 417.29,320.09 L 429.88,320.09 L 442.47,320.09 L 455.06,320.09 L 467.65,320.09 L 480.24,320.09 L 492.82,320.09 L 505.41,320.09 L 518.00,320.09 L 530.59,320.09 L 543.18,320.09 L 555.76,320.09 L 568.35,320.09 L 580.94,320.09 L 593.53,320.09 L 606.12,320.09 L 618.71,320.09 L 631.29,320.09 L 643.88,320.09 L 656.47,320.09 L 669.06,320.09 L 681.65,320.09 L 694.24,320.09 L 706.82,320.09 L 719.41,320.09 L 732.00,320.09 L 744.59,320.09 L 757.18,320.09 L 769.76,320.09 L 782.35,320.09 L 794.94,320.09 L 807.53,320.09 L 820.12,320.09 L 832.71,320.09 L 845.29,320.09 L 857.88,320.09 L 870.47,320.09 L 883.06,320.09 L 895.65,320.09 L 908.24,320.09 L 920.82,320.09 L 933.41,320.09 L 946.00,320.09 L 958.59,320.09 L 971.18,320.09 L 983.76,320.09 L 996.35,320.09 L 1008.94,320.09 L 1021.53,320.09 L 1034.12,320.09 L 1046.71,320.09 L 1059.29,320.09 L 1071.88,320.09 L 1084.47,320.09 L 1097.06,320.09 L 1109.65,320.09 L 1122.24,320.09 L 1134.82,320.09 L 1147.41,320.09 L 1160.00,320.09" fill="none" stroke="#ff7f0e" stroke-width="3" stroke-linecap="round" stroke-linejoin="round" opacity="0.9" />
<rect x="940" y="50" width="220" height="80" fill="#fff" stroke="#ccc" stroke-width="1" rx="12" ry="12" />
<line x1="960" y1="80" x2="1000" y2="80" stroke="#1f77b4" stroke-width="4" />
<text x="1010" y="86" font-size="18" fill="#333">Policy Loss</text>
<line x1="960" y1="110" x2="1000" y2="110" stroke="#ff7f0e" stroke-width="4" />
<text x="1010" y="116" font-size="18" fill="#333">Value Loss</text>
<text x="600.0" y="40" font-size="28" font-weight="bold" text-anchor="middle" fill="#222">SAC Training Losses Over Timesteps</text>
<text x="600.0" y="680" font-size="24" text-anchor="middle" fill="#222">Timesteps</text>
<text transform="translate(30,340.0) rotate(-90)" font-size="24" text-anchor="middle" fill="#222">Loss</text>
</svg>